<svg xmlns="http://www.w3.org/2000/svg" height="24" viewBox="0 -960 960 960" width="24">
<path fill="#fff" d="M194-50q-43.725 0-74.863-31.138Q88-112.275 88-156v-572q0-43.725 31.137-74.862Q150.275-834 194-834h8v-23q0-22 15.5-37.5T255-910q22 0 37.5 15.5T308-857v23h344v-23q0-22 15.5-37.5T705-910q22 0 37.5 15.5T758-857v23h8q43.725 0 74.862 31.138Q872-771.725 872-728v572q0 43.725-31.138 74.862Q809.725-50 766-50H194Zm0-106h572v-424H194v424Zm286-238q-19 0-32.5-13.5T434-440q0-19 13.5-32.5T480-486q19 0 32.5 13.5T526-440q0 19-13.5 32.5T480-394Zm-160 0q-19 0-32.5-13.5T274-440q0-19 13.5-32.5T320-486q19 0 32.5 13.5T366-440q0 19-13.5 32.5T320-394Zm320 0q-19 0-32.5-13.5T594-440q0-19 13.5-32.5T640-486q19 0 32.5 13.5T686-440q0 19-13.5 32.5T640-394ZM480-234q-19 0-32.5-13.5T434-280q0-19 13.5-32.5T480-326q19 0 32.5 13.5T526-280q0 19-13.5 32.5T480-234Zm-160 0q-19 0-32.5-13.5T274-280q0-19 13.5-32.5T320-326q19 0 32.5 13.5T366-280q0 19-13.5 32.5T320-234Zm320 0q-19 0-32.5-13.5T594-280q0-19 13.5-32.5T640-326q19 0 32.5 13.5T686-280q0 19-13.5 32.5T640-234Z"/>
</svg>