<svg xmlns="http://www.w3.org/2000/svg" height="24" viewBox="0 -960 960 960" width="24">
<path fill="#fff" d="M316-398q-19 0-32.5-13.5T270-444q0-19 13.5-32.5T316-490q19 0 32.5 13.5T362-444q0 19-13.5 32.5T316-398Zm164 0q-19 0-32.5-13.5T434-444q0-19 13.5-32.5T480-490q19 0 32.5 13.5T526-444q0 19-13.5 32.5T480-398Zm164 0q-19 0-32.5-13.5T598-444q0-19 13.5-32.5T644-490q19 0 32.5 13.5T690-444q0 19-13.5 32.5T644-398ZM194-50q-43.725 0-74.863-31.138Q88-112.275 88-156v-572q0-43.725 31.137-74.862Q150.275-834 194-834h8v-23q0-22 15.5-37.5T255-910q22 0 37.5 15.5T308-857v23h344v-23q0-22 15.5-37.5T705-910q22 0 37.5 15.5T758-857v23h8q43.725 0 74.862 31.138Q872-771.725 872-728v572q0 43.725-31.138 74.862Q809.725-50 766-50H194Zm0-106h572v-424H194v424Z"/>
</svg>