<svg xmlns="http://www.w3.org/2000/svg" height="24" viewBox="0 -960 960 960" width="24">
<path fill="#fff" d="M599-279q-16-16-15.5-39t16.5-39l71-71H404q-22 0-37.5-15.5T351-481q0-22 15.5-37.5T404-534h267l-73-73q-16-16-15.5-37.5T599-682q16-16 38-16t38 16l165 165q8 8 11.5 17.5T855-480q0 10-3.5 19.5T840-443L675-278q-16 16-38 15.5T599-279ZM189-100q-44 0-75-31t-31-75v-548q0-44 31-75t75-31h233q22 0 37.5 15.5T475-807q0 22-15.5 37.5T422-754H189v548h233q22 0 37.5 15.5T475-153q0 22-15.5 37.5T422-100H189Z"/>
</svg>