<svg xmlns="http://www.w3.org/2000/svg" height="24" viewBox="0 -960 960 960" width="24">
<path fill="#fff" d="M358.141-280Q312-280 280-311.859q-32-31.859-32-78T279.859-468q31.859-32 78-32T436-468.141q32 31.859 32 78T436.141-312q-31.859 32-78 32ZM194-50q-43.725 0-74.863-31.138Q88-112.275 88-156v-572q0-43.725 31.137-74.862Q150.275-834 194-834h8v-23q0-22 15.5-37.5T255-910q22 0 37.5 15.5T308-857v23h344v-23q0-22 15.5-37.5T705-910q22 0 37.5 15.5T758-857v23h8q43.725 0 74.862 31.138Q872-771.725 872-728v572q0 43.725-31.138 74.862Q809.725-50 766-50H194Zm0-106h572v-424H194v424Z"/>
</svg>